/* XPM */
static char *eb03de585cfa41b2dd004c54454fd018gaBL4ayIl6qQflIe[] = {
/* columns rows colors chars-per-pixel */
"64 64 18 1 ",
"  c black",
". c #077307",
"X c #464646",
"o c #915034",
"O c #9C5A3C",
"+ c #D66920",
"@ c #BD6C49",
"# c #C24450",
"$ c #0A870A",
"% c #088F08",
"& c #0F9C0F",
"* c #24B524",
"= c #A8E61D",
"- c gray61",
"; c gray74",
": c #F2BA8E",
"> c gray82",
", c gray87",
/* pixels */
"%%%=%%%%%%%%%%%&&&&.%%%%%%%%%%%%%%%%%%%%%%%%%%%%%%%%%%%%%%%%%%%%",
"%%=%%%%%%%%%%%%.$&$.%%%%%%%%%%%%%%%%%%%%%%%%%%%%%%%%%%%%%%%%%%%%",
"%%=%%%%%%%%%%%%%...%%%%%%%%%%%%%%%%%%%%%%%%%%%%%%%%%%%%%%%%%%%%%",
"%%%%%%%%%%%%%%%%%O%%%%%%%%%%%%%%%%%%%%%%%%%%%%%%%%%%%%%%%%%%%%%%",
"%%%%%%%%%%%%%%%%%O%%%%%%%%%%%%*&$.%%%%%%%%%%%%%%%%%%%%%%%%%%%%%%",
"%%%%%%%%%%%*&.%%@OO%%%%%%%%%%&&&&$.%%%%%%%%%%%%%%%%%%%%%%%%%%%%%",
"%%%%%%%%%%%*&$%%%%%%%%%%%%%%**&&&$.%%%%%%%%=%%%%%%%%%%%%%%%%%%%%",
"%%%%%%%%%%%&&$%%%%%%%%%%%%%%&&&&&$.%%%%%%%%%=%%%%%%%%%%%%%%%%%%%",
"%%%%%%%%%%%.$.%%%%%%%%%%%%%%..$&$$.%%%%%%%%%=%%%%%%%%%%%%%%%%%%%",
"%%%%%%%%%%%...%%%%%%%%%%%%%%%.....%%%%%%%%%%%%%%%%%%%%%%%%%%%%%%",
"%%%%%%%%%%%%O%%%%%%%%%%%%%%%%%%O%%%%%%%%%%%%%%%%%%%%%%%%%%=%%%%%",
"%%%%%%%%%%%%O%%%%%%%%%%%%%%%%%%O%%%%%%%%%%%%%%%%%%%%%%%%%=%%%%%%",
"%%%%%%%%%%%%O%%%%%=%%%%%%%%%%%%O%%%%%%%%%%%%%%%%%%%%%%%%%=%%%%%%",
"%%%%%%%%%%%%%%%%%%%=%%%%%%%%%%%O%%%%%%%%%%%%%%%%%%%%%%%%%%%%%%%%",
"%%%%%%%%%%%%%%%%%%%=%%%%%%%%%%%%%%%%%%%%%%%%%%%%%%%%%%%%%%%%%%%%",
"%%%%%%%%%%%%%%%%%%%%%%%%%%%%%%%%%%%%%%%%%%%%%%%%%%%%%%%%%%%%%%%%",
"%%%%%%%%%%%%%%%%%%%%%%%%%%%%%%%%%%%%%%%%%%%%%%%%%%%%%%%%%%%%%%%%",
"%%%%%%%%%%%%%%%%%%%%%%%%%%%%%%%%%%%%%%%%%%%%%%%%%%%%%%%%%%%%%%%%",
"%%%%%%%%%%%%%%%%%%%%%%%%%%%%%%%%%%%%%%%%%%%%%%%%%%%%%%%%%%%%%%%%",
"%%%%%%%%%%%%%%%%%%%%%%%%%%%%%%%%%%%%%%%%%%%%%%%%%%%%%%%%%%%%%%%%",
"%%%%%%%%%%%%%%%%%%%%%%%%%%%%%%%%%%%%%%%%%%%%%%%%%%%%%%%%%%%%%%%%",
"%%%%%%%%%%%%%%%%%%%%%%%%%%%%%%%%%%%%%%%%%%%%%%%%%%%%%%%%%%%%%%%%",
"%%%%%%%%%%%%%%%%%%%%%%%%%%%%%%%%%%%%%%%%%%%%%%%%%%%%%%%%%%%%%%%%",
"%%%%%%%%%%%%%%%%%%%%%%%%%%%%%%%%%%%%%%%%%%%%%%%%%%%%%%%%%%%%%%%%",
"%%%%%%%%=%%%%%%%%%%%%%%%%%%%%%%%%%%%%%%%%%%%%%%%%%%%%%%%%%%%%%%%",
"%%%%%%%%%=%%%%%%%%%%%%%%%%%%%%%%%%%%%%%%%%%%%%%%%%%%%%%%%%%%%%%%",
"%%%%%%%%%=%%%%%%%%%%%%%%%%%%%%%%%%%%%%%%%%%%%%%%%%%%%%%%%%*&.%%%",
"%%%%%%%%%%%%%%%%%%%%%%%%%%%%%%%%%%%%%%%%%%%%%%%%%%%%%%%%%%*&$%%%",
"%%%%%%%%%%%%%%%%%%%%%%%%%%%%%%%%%%%%%%%%%%%%%%%%%%%%%%%%%%&&$%%%",
"%%%%%%%%%%%%%%%%%%%%%%%%%%%%%%%%%%%%%%%%%%%%%%%%%%%%%%%%%%.$.%%%",
"%%%%%%%%%%%%%%%%%%%%%%%%%%%%%%%%%%%%%%%%%%%%%%%%%%%%%%%%%%...%%%",
"%%%%%%%%%%%%%%%%%%%%%%%%%%%%%%%%%%%%%%%%%%%%%%%%%%%%%%%%%%%O%%%%",
"%%%%%%%%%%%%%%%%%%%%%%%%%%%%%%%%%%o%%%%%%%%%%%%%%%%%%=%%%%%O%%%%",
"%%%%%%%%%%%%%%%%%%%%%%%%%%ooo%%%%%o%%%%%%%%%%%%%%%%%=%%%%%%O%%%%",
"%%%%%%%%%%%%%%%%%%%%%%%%%ooo%%%%%oo%%%%%%%%%%%%%%%%%=%%%%%%%%%%%",
"&$%%%%%%%%%%%%%%%%%%%%%%ooo%%%%%%oo%%%%%%%%%%%%%%%%%%%%%%%%%%%%*",
"&&.%%%%%%%%%%%%%X,%%%##ooo%%%%%%%oo%%%%%%X%%%%%%%%%%%%%%%%%%%%%&",
"&&.%%%%%%%%%%%%%X>,,,,,,,,%%%####oo%%;;;;X%%%%%%%%%%%%%%%%%%%%&&",
"&$.%%%%%%%%%%%%%X>>>,XX,,,,#####;;;;;;;--X%%%%%%%%%%%%%%%%%%%%.$",
"..%%%%%%%%%%%%%%X,,>X  X,,,,,###;;;;;;--;X%%%%%%%%%%%%%%%%%%%%%.",
"..%%%%%%%%%%%%%%X,,X    X,,,,>>,;;-;;--;;X%%%%%%%%%%%%%%%%%%%%%.",
"O%%%%%%%%%%%%%%%X,,X    X>>,>>,,;;----;;;X%%%%%%%%%%%*&.%%%%%%%%",
"O%%%%%%%%%%%%%%%X,,X    X,>>>,,,;;;;--;;;X%%%%%%%%%%%&&$%%%%%%%%",
"OO%%%%%%%%%%%%%%X,,X  ##X,,>,,,,;;;;--;;;X::%%%%%%%%*&&$%%%%%%%@",
"%%%%%%%%%%%%%%%%X,,X ###X,,>>,,,;;;;;---;X:+:%%%%%%%.$&$%%%%%%%%",
"=%%%%%%%%%%%%%%%XXXXXXXXXXXXXXXXXXXXXXXXXX::++:%%%%%..$.%%%%%%%%",
"%=%%%%%%%%%%%%%%%%%%%%%%%%%%%%%%%%%%%%%%%%%%%%%%%%%%%...%%%%%%%%",
"%=%%%%%%%%%%%%%%%%%%%%####%%%%%%%%%%%%%%%%%%%%%%%%%%%%O%%%%%%%%%",
"%%%%%%%%%%%%%%%%%%%%%########%%%%%%%%%%%%%%%%%%%%%%%%%O%%%%%%%%%",
"%%%%%%%%%%%%%%%%%%%%%%%%%%%%%%%%%%%%%%%%%%%%%%%%%%%%%%O%%%%%%%%%",
"%%%%%%%%%%%%%%%%%%%%%%%%%%%%%%%%%%%%%%%%%%%=%%%%%%%%%%%%%%%%%%%%",
"%%%%%%%%%%%%%%%%%%%%%%%%%%%%%%%%%%%%%%%%%%=%%%%%%%%%%%%%%%%%%%%%",
"%%%%%%%%%%%%%%%%%%%%%%%%%%%%%%%%%%%%%%%%%%=%%%%%&.%%%%%%%%%%%%%%",
"%%%%%%%%%%%%%%%%%%%%%%%%%%%%%%%%%%%**&.%%%%%%%%&&$%%%%%%%%%%%%%%",
"%%%%%%%%%%%%%%%%%%%%%%%%%%%%%%%%%%%&&&$.%%%%%%%&&$%%%%%%%%%%%%%%",
"%%%%%%%%%%%%%%%%%%%%%%%%%%%%%%%%%%*&&&$.%%%%%%%.&$%%%%%%%%%%%%%%",
"%%%%%%%%%%%%%%%%%%%=%%%%%%*&$.%%%%.$&&$.%%%%%%%...%%%%%%%%%%%%%%",
"%%%%%%%%%%%%%%%%%%%%=%%%%&&&&$.%%%..$$..%%%%%%%%O%%%%%%%%%%%%%%%",
"%%%%%%%%%%%%%%%%%%%%=%%%&&&&&$.%%%%....%%%%%%%%%O%%%%%%%%%=%%%%%",
"%%%%%%%%%%%%%%%%%%%%%%%%...$$..%%%%%@O%%%%%%%%%%O%%%%%%%%=%%%%%%",
"%%%%%%%%%%%%%%%%%%%%%%%%%%%O%%%%%%%%@O%%%%%%%%%%%%%%%%%%%=%%%%%%",
"%%%%%%%%%%%%%%%%%%%%%%%%%%%O%%%%%%%@OO%%%%%%%%%%%%%%%%%%%%%%%%%%",
"%%%%%%%%%%%%%%%%*&$%%%%%%%@OO%%%%%%%%%%%%%%%%%%%%%%%%%%%%%%%%%%%",
"%%%%%%%%%%%%%%%%&&&.%%%%%%%%%%%%%%%%%%%%%%%%%%%%%%%%%%%%%%%%%%%%"
};
