/* XPM */
static char *result[] = {
/* columns rows colors chars-per-pixel */
"90 90 5 1 ",
"  c black",
". c #ED1C24",
"X c #B4B4B4",
"o c white",
"O c None",
/* pixels */
"OOOOOOOOOOOOOOOOOOOOOOOOOOOOOOOOOOOOOOooooooooooooooOOOOOOOOOOOOOOOOOOOOOOOOOOOOOOOOOOOOOO",
"OOOOOOOOOOOOOOOOOOOOOOOOOOOOOOOOOooooooooooooooooooooooooOOOOOOOOOOOOOOOOOOOOOOOOOOOOOOOOO",
"OOOOOOOOOOOOOOOOOOOOOOOOOOOOOOooooooooooooooooooooooooooooooOOOOOOOOOOOOOOOOOOOOOOOOOOOOOO",
"OOOOOOOOOOOOOOOOOOOOOOOOOOOooooooooooooooooooooooooooooooooooooOOOOOOOOOOOOOOOOOOOOOOOOOOO",
"OOOOOOOOOOOOOOOOOOOOOOOOOooooooooooooooooooooooooooooooooooooooooOOOOOOOOOOOOOOOOOOOOOOOOO",
"OOOOOOOOOOOOOOOOOOOOOOOooooooooooooooooooooooooooooooooooooooooooooOOOOOOOOOOOOOOOOOOOOOOO",
"OOOOOOOOOOOOOOOOOOOOOooooooooooooooooooooooooooooooooooooooooooooooooOOOOOOOOOOOOOOOOOOOOO",
"OOOOOOOOOOOOOOOOOOOOooooooooooooooooooooooooooooooooooooooooooooooooooOOOOOOOOOOOOOOOOOOOO",
"OOOOOOOOOOOOOOOOOOOooooooooooooooooooooooooooooooooooooooooooooooooooooOOOOOOOOOOOOOOOOOOO",
"OOOOOOOOOOOOOOOOOooooooooooooooooooooooooooooooooooooooooooooooooooooooooOOOOOOOOOOOOOOOOO",
"OOOOOOOOOOOOOOOOooooooooooooooooooooooooooooooooooooooooooooooooooooooooooOOOOOOOOOOOOOOOO",
"OOOOOOOOOOOOOOOooooooooooooooooooooooooooooooooooooooooooooooooooooooooooooOOOOOOOOOOOOOOO",
"OOOOOOOOOOOOOOooooooooooooooooooooooooooooooooooooooooooooooooooooooooooooooOOOOOOOOOOOOOO",
"OOOOOOOOOOOOOoooo          oo          oo          oo          oo          ooOOOOOOOOOOOOO",
"OOOOOOOOOOOOooooo          oo          oo          oo          oo          oooOOOOOOOOOOOO",
"OOOOOOOOOOOoooooo  XXXXXX  oo  XXXXXX  oo  XXXXXXXXoo  XXXXXXXXoo  XXXXXXXXooooOOOOOOOOOOO",
"OOOOOOOOOOooooooo  oooooo  oo  oooooo  oo  oooooooooo  oooooooooo  oooooooooooooOOOOOOOOOO",
"OOOOOOOOOoooooooo  oooooo  oo  oooooo  oo  oooooooooo  oooooooooo  ooooooooooooooOOOOOOOOO",
"OOOOOOOOOoooooooo  oooooo  oo  oooooo  oo  oooooooooo  oooooooooo  ooooooooooooooOOOOOOOOO",
"OOOOOOOOooooooooo  oooooo  oo  oooooo  oo  oooooooooo  oooooooooo  oooooooooooooooOOOOOOOO",
"OOOOOOOoooooooooo  oooooo  oo  oooooo  oo  oooooooooo  oooooooooo  ooooooooooooooooOOOOOOO",
"OOOOOOooooooooooo        XXoo        XXoo        oooo          oo          oooooooooOOOOOO",
"OOOOOOooooooooooo        oooo        oooo        oooo          oo          oooooooooOOOOOO",
"OOOOOoooooooooooo  XXXXXXoooo  XXXX    oo  XXXXXXooooXXXXXXXX  ooXXXXXXXX  ooooooooooOOOOO",
"OOOOOoooooooooooo  oooooooooo  oooo    oo  oooooooooooooooooo  oooooooooo  ooooooooooOOOOO",
"OOOOooooooooooooo  oooooooooo  ooooXX  oo  oooooooooooooooooo  oooooooooo  oooooooooooOOOO",
"OOOOooooooooooooo  oooooooooo  oooooo  oo  oooooooooooooooooo  oooooooooo  oooooooooooOOOO",
"OOOoooooooooooooo  oooooooooo  oooooo  oo  oooooooooooooooooo  oooooooooo  ooooooooooooOOO",
"OOOoooooooooooooo  oooooooooo  oooooo  oo  oooooooooooooooooo  oooooooooo  ooooooooooooOOO",
"OOOoooooooooooooo  oooooooooo  oooooo  oo  oooooooooooooooooo  oooooooooo  ooooooooooooOOO",
"OOooooooooooooooo  oooooooooo  oooooo  oo  oooooooooooooooooo  oooooooooo  oooooooooooooOO",
"OOooooooooooooooo  oooooooooo  oooooo  oo          oo          oo          oooooooooooooOO",
"OOooooooooooooooo  oooooooooo  oooooo  oo          oo          oo          oooooooooooooOO",
"OooooooooooooooooXXooooooooooXXooooooXXooXXXXXXXXXXooXXXXXXXXXXooXXXXXXXXXXooooooooooooooO",
"OooooooooooooooooooooooooooooooooooooooooooooooooooooooooooooooooooooooooooooooooooooooooO",
"Ooooooooooooooooooooooooooooo          oo          oo          ooooooooooooooooooooooooooO",
"Ooooooooooooooooooooooooooooo          oo          oo          ooooooooooooooooooooooooooO",
"Ooooooooooooooooooooooooooooo  XXXXXXXXoo  XXXXXXXXoo  XXXXXXXXooooooooooooooooooooooooooO",
"ooooooooooooooooooooooooooooo  oooooooooo  oooooooooo  ooooooooooooooooooooooooooooooooooo",
"ooooooooooooooooooooooooooooo  oooooooooo  oooooooooo  ooooooooooooooooooooooooooooooooooo",
"ooooooooooooooooooooooooooooo  oooooooooo  oooooooooo  ooooooooooooooooooooooooooooooooooo",
"ooooooooooooooooooooooooooooo  oooooooooo  oooooooooo  ooooooooooooooooooooooooooooooooooo",
"ooooooooooooooooooooooooooooo  oooooooooo  oooooooooo  ooooooooooooooooooooooooooooooooooo",
"ooooooooooooooooooooooooooooo        oooo          oo  ooooooooooooooooooooooooooooooooooo",
"ooooooooooooooooooooooooooooo        oooo          oo  ooooooooooooooooooooooooooooooooooo",
"ooooooooooooooooooooooooooooo  XXXXXXooooXXXXXXXX  oo  ooooooooooooooooooooooooooooooooooo",
"ooooooooooooooooooooooooooooo  oooooooooooooooooo  oo  ooooooooooooooooooooooooooooooooooo",
"ooooooooooooooooooooooooooooo  oooooooooooooooooo  oo  ooooooooooooooooooooooooooooooooooo",
"ooooooooooooooooooooooooooooo  oooooooooooooooooo  oo  ooooooooooooooooooooooooooooooooooo",
"ooooooooooooooooooooooooooooo  oooooooooooooooooo  oo  ooooooooooooooooooooooooooooooooooo",
"ooooooooooooooooooooooooooooo  oooooooooooooooooo  oo  ooooooooooooooooooooooooooooooooooo",
"ooooooooooooooooooooooooooooo  oooooooooooooooooo  oo  ooooooooooooooooooooooooooooooooooo",
"Ooooooooooooooooooooooooooooo  oooooooooooooooooo  oo  ooooooooooooooooooooooooooooooooooO",
"Ooooooooooooooooooooooooooooo          oo          oo          ooooooooooooooooooooooooooO",
"Ooooooooooooooooooooooooooooo          oo          oo          ooooooooooooooooooooooooooO",
"OooooooooooooooooooooooooooooXXXXXXXXXXooXXXXXXXXXXooXXXXXXXXXXooooooooooooooooooooooooooO",
"OooooooooooooooooooooooooooooooooooooooooooooooooooooooooooooooooooooooooooooooooooooooooO",
"OOooooooooooooooo          oo          ooooooooooooooooooooo     oooooooooooooooooooooooOO",
"OOooooooooooooooo          oo          ooooooooooooooooooo  .....  oooooooooooooooooooooOO",
"OOooooooooooooooo  XXXXXX  oo  XXXXXX  ooooooooooooooooo  .........  oooooooooooooooooooOO",
"OOOoooooooooooooo  oooooo  oo  oooooo  oooooooooooooooo ............. oooooooooooooooooOOO",
"OOOoooooooooooooo  oooooo  oo  oooooo  oooooooooooooooo .  .......  . oooooooooooooooooOOO",
"OOOoooooooooooooo  oooooo  oo  oooooo  ooooooooooooooo ..   .....   .. ooooooooooooooooOOO",
"OOOOooooooooooooo  oooooo  oo  oooooo  ooooooooooooooo ...   ...   ... oooooooooooooooOOOO",
"OOOOooooooooooooo  oooooo  oo  oooooo  oooooooooooooo .....   .   ..... ooooooooooooooOOOO",
"OOOOOoooooooooooo  oooooo  oo        XXoooooooooooooo ......     ...... oooooooooooooOOOOO",
"OOOOOoooooooooooo  oooooo  oo        oooooooooooooooo .......   ....... oooooooooooooOOOOO",
"OOOOOOooooooooooo  oooooo  oo  XXXX    oooooooooooooo ......     ...... ooooooooooooOOOOOO",
"OOOOOOooooooooooo  oooooo  oo  oooo    oooooooooooooo .....   .   ..... ooooooooooooOOOOOO",
"OOOOOOOoooooooooo  oooooo  oo  ooooXX  ooooooooooooooo ...   ...   ... ooooooooooooOOOOOOO",
"OOOOOOOOooooooooo  oooooo  oo  oooooo  ooooooooooooooo ..   .....   .. oooooooooooOOOOOOOO",
"OOOOOOOOOoooooooo  oooooo  oo  oooooo  oooooooooooooooo .  .......  . oooooooooooOOOOOOOOO",
"OOOOOOOOOoooooooo  oooooo  oo  oooooo  oooooooooooooooo ............. oooooooooooOOOOOOOOO",
"OOOOOOOOOOooooooo  oooooo  oo  oooooo  ooooooooooooooooo  .........  oooooooooooOOOOOOOOOO",
"OOOOOOOOOOOoooooo  oooooo  oo  oooooo  ooooooooooooooooooo  .....  ooooooooooooOOOOOOOOOOO",
"OOOOOOOOOOOOooooo          oo  oooooo  ooooooooooooooooooooo     oooooooooooooOOOOOOOOOOOO",
"OOOOOOOOOOOOOoooo          oo  oooooo  ooooooooooooooooooooooooooooooooooooooOOOOOOOOOOOOO",
"OOOOOOOOOOOOOOoooXXXXXXXXXXooXXooooooXXoooooooooooooooooooooooooooooooooooooOOOOOOOOOOOOOO",
"OOOOOOOOOOOOOOOooooooooooooooooooooooooooooooooooooooooooooooooooooooooooooOOOOOOOOOOOOOOO",
"OOOOOOOOOOOOOOOOooooooooooooooooooooooooooooooooooooooooooooooooooooooooooOOOOOOOOOOOOOOOO",
"OOOOOOOOOOOOOOOOOooooooooooooooooooooooooooooooooooooooooooooooooooooooooOOOOOOOOOOOOOOOOO",
"OOOOOOOOOOOOOOOOOOOooooooooooooooooooooooooooooooooooooooooooooooooooooOOOOOOOOOOOOOOOOOOO",
"OOOOOOOOOOOOOOOOOOOOooooooooooooooooooooooooooooooooooooooooooooooooooOOOOOOOOOOOOOOOOOOOO",
"OOOOOOOOOOOOOOOOOOOOOooooooooooooooooooooooooooooooooooooooooooooooooOOOOOOOOOOOOOOOOOOOOO",
"OOOOOOOOOOOOOOOOOOOOOOOooooooooooooooooooooooooooooooooooooooooooooOOOOOOOOOOOOOOOOOOOOOOO",
"OOOOOOOOOOOOOOOOOOOOOOOOOooooooooooooooooooooooooooooooooooooooooOOOOOOOOOOOOOOOOOOOOOOOOO",
"OOOOOOOOOOOOOOOOOOOOOOOOOOOooooooooooooooooooooooooooooooooooooOOOOOOOOOOOOOOOOOOOOOOOOOOO",
"OOOOOOOOOOOOOOOOOOOOOOOOOOOOOOooooooooooooooooooooooooooooooOOOOOOOOOOOOOOOOOOOOOOOOOOOOOO",
"OOOOOOOOOOOOOOOOOOOOOOOOOOOOOOOOOooooooooooooooooooooooooOOOOOOOOOOOOOOOOOOOOOOOOOOOOOOOOO",
"OOOOOOOOOOOOOOOOOOOOOOOOOOOOOOOOOOOOOOooooooooooooooOOOOOOOOOOOOOOOOOOOOOOOOOOOOOOOOOOOOOO"
};
