/* XPM */
static char *_25dcd2f97bf4a54cc11dc32c19f0108gls9j9ViiBuEpYnX[] = {
/* columns rows colors chars-per-pixel */
"64 64 146 2 ",
"   c #020101",
".  c #090406",
"X  c #0D0708",
"o  c #0F0E0E",
"O  c #130005",
"+  c #140208",
"@  c #1A040B",
"#  c #120D0E",
"$  c #1C0D12",
"%  c #131212",
"&  c #1B1114",
"*  c #1E1E1E",
"=  c #23030D",
"-  c #32000F",
";  c #2E0412",
":  c #230D14",
">  c #280D16",
",  c #2D0E18",
"<  c #350011",
"1  c #3B0315",
"2  c #340D19",
"3  c #3C0D1B",
"4  c #221016",
"5  c #241419",
"6  c #2B151C",
"7  c #211D1E",
"8  c #281B1F",
"9  c #34151E",
"0  c #251F20",
"q  c #2D1D22",
"w  c #351720",
"e  c #321B21",
"r  c #3E1C27",
"t  c #222222",
"y  c #292325",
"u  c #2D2D2D",
"i  c #32252A",
"p  c #3C262D",
"a  c #312D2E",
"s  c #3C282E",
"d  c #332F31",
"f  c #3A2E32",
"g  c #353133",
"h  c #393234",
"j  c #3E3538",
"k  c #3D383C",
"l  c #440116",
"z  c #410618",
"x  c #420B1C",
"c  c #4E091F",
"v  c #56011C",
"b  c #431423",
"n  c #4F1427",
"m  c #411824",
"M  c #461D29",
"N  c #4E1F2D",
"B  c #571126",
"V  c #531B2D",
"C  c #5D192E",
"Z  c #670121",
"A  c #6B0625",
"S  c #6F0A28",
"D  c #7B0127",
"F  c #750529",
"G  c #7E042B",
"H  c #750B2D",
"J  c #7F0B2F",
"K  c #60182E",
"L  c #7F0D30",
"P  c #621C32",
"I  c #6C1B34",
"U  c #761633",
"Y  c #7B1534",
"T  c #761A36",
"R  c #781836",
"E  c #711D38",
"W  c #43252E",
"Q  c #4C212E",
"!  c #4C2733",
"~  c #442830",
"^  c #4A2E37",
"/  c #472F38",
"(  c #512130",
")  c #562C3A",
"_  c #5C2B3B",
"`  c #433237",
"'  c #42353A",
"]  c #4B343C",
"[  c #45393D",
"{  c #53323C",
"}  c #662337",
"|  c #6E2037",
" . c #65263A",
".. c #6B2238",
"X. c #62293B",
"o. c #3C5D16",
"O. c #077307",
"+. c #3A680D",
"@. c #24740F",
"#. c #2F730B",
"$. c #377406",
"%. c #387306",
"&. c #316813",
"*. c #4E5E0C",
"=. c #5E5D05",
"-. c #59540F",
";. c #465D11",
":. c #465419",
">. c #704C0A",
",. c #6F5405",
"<. c #4C6806",
"1. c #463C40",
"2. c #4A3940",
"3. c #83012A",
"4. c #8C012D",
"5. c #840D2F",
"6. c #8C0C2F",
"7. c #93032F",
"8. c #90092E",
"9. c #8F0531",
"0. c #840C31",
"q. c #8B0A33",
"w. c #8D0933",
"e. c #890D33",
"r. c #970130",
"t. c #970230",
"y. c #910531",
"u. c #910631",
"i. c #990030",
"p. c #980130",
"a. c #9A0030",
"s. c #9B0030",
"d. c #851030",
"f. c #831134",
"g. c #801234",
"h. c #AD0027",
"j. c #A3002B",
"k. c #9C5A3C",
"l. c #BD6C49",
"z. c #0A870A",
"x. c #088F08",
"c. c #17800C",
"v. c #0F9C0F",
"b. c #218007",
"n. c #24B524",
"m. c #A8E61D",
/* pixels */
"x.x.x.m.x.x.x.x.x.x.x.x.x.x.x.v.v.v.v.O.x.x.x.x.x.x.x.x.x.x.x.x.x.x.x.x.x.x.x.x.x.x.x.x.x.x.x.x.x.x.x.x.x.x.x.x.x.x.x.x.x.x.x.x.",
"x.x.m.x.x.x.x.x.x.x.x.x.x.x.x.O.z.v.z.O.x.x.x.x.x.x.x.x.x.x.x.x.x.x.x.x.x.x.x.x.x.x.x.x.x.x.x.x.x.x.x.x.x.x.x.x.x.x.x.x.x.x.x.x.",
"x.x.m.x.x.x.x.x.x.x.x.x.x.x.x.x.O.O.O.x.x.x.x.x.x.x.x.x.x.x.x.x.x.x.x.x.x.x.x.x.x.x.x.x.x.x.x.x.x.x.x.x.x.x.x.x.x.x.x.x.x.x.x.x.",
"x.x.x.x.x.x.x.x.x.x.x.x.x.x.x.x.x.k.x.x.x.x.x.x.x.x.x.x.x.x.x.x.x.x.x.x.x.x.x.x.x.x.x.x.x.x.x.x.x.x.x.x.x.x.x.x.x.x.x.x.x.x.x.x.",
"x.x.x.x.x.x.x.x.x.x.x.x.x.x.x.x.x.k.x.x.x.x.x.x.x.x.x.x.x.x.x.x.x.x.x.x.x.x.x.x.x.x.x.x.x.x.x.x.x.x.x.x.x.x.x.x.x.x.x.x.x.x.x.x.",
"x.x.x.x.x.x.x.x.x.x.x.x.x.x.x.x.l.k.k.x.x.x.x.x.x.x.x.x.x.x.x.x.x.x.x.x.x.x.x.x.x.x.x.x.x.x.x.x.x.x.x.x.x.x.x.x.x.x.x.x.x.x.x.x.",
"x.x.x.x.x.x.x.x.x.x.x.x.x.x.x.x.x.x.x.x.x.x.x.x.x.x.x.x.x.x.x.x.x.x.x.x.x.x.x.x.x.x.x.x.x.x.x.x.x.x.x.x.x.x.x.x.x.x.x.x.x.x.x.x.",
"x.x.x.x.x.x.x.x.x.x.x.x.x.x.x.x.x.x.x.x.x.x.x.x.x.x.x.x.x.x.x.x.x.x.x.x.x.x.x.x.x.x.x.x.b.x.x.x.x.x.x.x.x.x.x.x.x.x.x.x.x.x.x.x.",
"x.x.x.x.x.x.x.x.x.x.x.x.x.x.x.x.x.x.x.x.x.x.x.x.x.x.x.x.x.x.x.x.x.x.x.x.x.x.x.x.x.$.x.x.x.x.x.x.x.x.x.x.x.x.x.x.x.x.x.x.x.x.x.x.",
"x.x.x.x.x.x.x.x.x.x.x.x.x.x.x.x.x.x.x.x.x.x.x.x.$.x.b.x.x.x.x.x.x.x.x.x.x.x.x.b.x.b.b.x.x.x.x.x.x.x.x.x.x.x.x.x.x.x.x.x.x.x.x.x.",
"x.x.x.x.x.b.x.x.b.x.x.x.x.x.x.x.x.x.x.x.x.x.x.x.x.x.b.x.x.x.x.x.x.x.x.x.x.x.x.b.x.x.$.x.b.b.x.x.x.x.x.x.x.x.x.x.x.x.m.x.x.x.x.x.",
"x.x.x.x.x.x.x.x.b.b.x.x.x.x.x.x.x.x.x.x.x.x.x.x.b.x.$.x.b.x.x.x.x.x.x.x.x.x.x.x.b.$.x.,.$.x.x.x.x.x.x.x.x.x.x.x.x.m.x.x.x.x.x.x.",
"x.x.x.x.x.x.x.b.x.x.x.b.x.x.x.x.x.x.x.x.x.x.x.x.x.x.b.b.b.x.x.x.x.x.x.x.x.x.x.b.$.b.=.b.x.x.x.x.x.x.x.x.x.x.x.x.x.m.x.x.x.x.x.x.",
"x.x.x.x.x.b.x.b.x.x.x.x.x.x.x.x.x.x.x.x.x.x.x.b.x.b.x.x.x.x.x.c.x.x.x.x.x.x.x.$.b.b.$.x.$.x.x.x.x.x.x.x.x.x.x.x.x.x.x.x.x.x.x.x.",
"x.x.x.x.x.x.x.x.x.<.$.b.$.x.x.x.x.x.x.x.x.x.x.#.b.#.x.#.x.x.@.x.@.x.x.x.x.x.b.#.b.x.x.=.b.x.x.x.x.x.x.x.x.x.x.x.x.x.x.x.x.x.x.x.",
"x.x.x.x.x.x.x.b.x.b.<.x.x.x.x.x.x.x.x.@.@.c.c.c.#.c.@.#.@.&.x.x.c.@.x.&.x.x.c.#.c.$.c.b.c.c.x.x.x.x.x.x.x.x.x.x.x.x.x.x.x.x.x.x.",
"x.x.x.x.x.x.x.x.x.=.b.x.x.b.x.x.x.c.x.c.@.c.c.c.x.s.p.p.7.p.a.r.t.t.a.a.r.a.a.a.r.x.@.x.c.c.c.c.c.x.x.x.x.x.x.x.x.x.b.x.x.x.x.x.",
"x.x.x.x.x.x.x.b.x.$.b.x.<.b.c.c.c.c.x.p.p.p.p.p.7.7.w.f.Y f.f.f.Y f.f.f.Y e.9.7.u.t.a.a.a.a.s.c.&.x.&.c.c.x.c.x.x.x.x.b.x.x.x.x.",
"x.x.x.x.x.x.x.x.x.x.b.b.b.&.@.@.a.a.r.y.w.f.Y Y Y R  . . .X.X.X._ X.X.X. ._ } ..T f.f.f.f.q.7.7.p.p.c.@.x.c.x.@.x.b.$.x.b.x.x.x.",
"x.x.x.x.x.x.x.x.c.x.x.c.c.j.a.a.y.w.f.E X._ X._ _ { { ] ] 2.2.1.1.1.2.{ 2.] { { {  .X. . ...R d.d.y.a.a.7.@.@.*.#.c.x.x.b.x.x.x.",
"x.x.x.x.x.x.x.@.c.c.c.+.a.r.w.e.Y .. ._ ] [ ] ] ' / ' ' [ j k k k k 1.k [ k [ ' ] ^ [ ] { { _  .E f.f.q.y.y.@.;.x.c.b.x.b.x.x.x.",
"x.x.x.x.x.x.c.&.x.x.h.a.w.f.| X._ { ] [ ' j j h g j h h g k g g g g g g g g g g g h h [ / ' [ { _ _ } ..T f.6.7.@.c.$.b.x.x.x.x.",
"x.x.x.x.x.x.c.@.c.r.y.e.T X._ ] ] ' j j g g g a u u u u u u u u g u u u u u g u u g a g k g g k ] ^ ^ { _ Y f.6.6.&.&.x.x.x.x.x.",
"x.x.x.x.x.x.x.&.8.d.T  ._ { ] ' ' h g g a g u u u u g u u u u u u u u u u u u u u u u u u u u g d h h ` ^ _ I Y d.8.@.c.x.x.x.x.",
"x.x.x.x.c.c.@.7.d.T  .{ 1.' j h g u u g u u u u u u u u u u u u u u u u u u u u u u u u u u u u u d a g f [ _ P U 5.7.c.c.x.x.x.",
"x.x.x.x.x.c.7.6.Y } { [ g g g u u u u u u u u u u u y u u u u t u u u u y u y u u u u u u u u u u u u h u u f ! K Y 7.p.x.x.x.x.",
"x.x.x.x.x.x.a.0.I ) ~ u u u u d u u u u u t t t t t t t t t t t t t t t t t t t t t t u u u u u u u u u u d u ~ ( I 7.p.c.x.x.x.",
"x.x.x.x.c.@.7.L C ~ d u u u u u u u y t t t t t t * t t t * t * t * t t t * t t t t t t y u u y u u u u u u u p Q P 7.p.c.x.x.x.",
"x.x.x.x.c.c.r.J C ~ u u u u u t t t t * t * * * * * * * t * * * * * * t * * * * * * t * * t t t u u y u u u u p Q C 7.s.x.c.x.x.",
"x.x.x.x.c.c.r.5.C W i u u y t t * * t * * * * * t * * * * * * * t * * * * t * * * * * * * * t t t t u t u u i p Q C 7.s.x.x.x.x.",
"x.x.x.x.x.@.a.y.U V W i y 0 * * * t * * * * * t * * * * * * * * * * t * * t t * * * t * t t * * t t * * t t e M C 5.s.p.c.x.x.x.",
"x.x.x.x.c.c.c.a.7.H N r q 0 * t * * * * t * * * * * * % * % % % % % % % * % * * * * * * * * * * t * * * t e m B H 7.s.@.x.x.x.x.",
"x.x.x.x.x.@.+.@.p.7.J B M 9 8 * * t t t * * * % % % % % % # % % % % % % % % * % % & t t * * * * * * * 8 9 b B H 7.a.+.@.x.x.x.x.",
"x.x.x.x.x.x.@.@.x.p.7.7.H m e 8 7 & * % % % % % % % % % % % % % % % % % % % % % % % % % o % o & 5 6 9 9 b S 4.7.7.@.c.x.x.x.x.x.",
"x.x.x.x.x.x.c.c.x.x.p.p.p.4.9 9 9 > 4 & & % % # # % % % % % % % % % % % o o o % # o % # % : 4 , 9 3 b x G 7.a.a.&.c.x.x.x.x.x.x.",
"v.z.x.x.x.x.x.x.@.o.#.@.j.p.7.4.F 3 3 2 4 $ $ > $ & # #                 . X o # $ : : > > , 3 x c A G 7.a.a.@.@.x.x.x.x.x.x.x.n.",
"v.v.O.x.x.x.x.x.c.#.b.<.@.p.p.7.p.7.3.3.4 2 x z 1 ; @ @ O + + O O O O O + + + @ ; 1 z x x c A D 4.7.a.r.a.x.x.x.x.x.x.x.x.x.x.v.",
"v.v.O.x.x.x.x.x.b.$.x.:.c.b.x.@.p.p.p.p.s.4.3.D Z v l 1 < - < < < < - < - + = O D 3.3.3.4.4.7.a.a.a.x.x.&.x.x.x.x.x.x.x.x.x.v.v.",
"v.z.O.x.x.x.b.x.x.x.$.#.x.x.&.c.c.c.x.p.p.p.p.p.7.4.4.3.3.D 3.3.3.3.3.3.4.a.a.a.a.r.a.a.j.h.j.@.c.x.x.$.c.b.x.x.x.x.x.x.x.x.O.x.",
"O.O.x.x.x.x.x.x.b.x.c.@.c.x.x.c.c.@.x.@.c.x.@.@.+.j.7.j.p.p.7.p.a.a.a.a.r.a.j.r.j.c.c.+.;.#.c.b.b.x.x.x.$.x.x.x.x.x.x.x.x.x.x.O.",
"O.O.x.x.x.x.b.x.x.$.x.x.b.x.x.x.x.@.x.x.x.c.&.>.@.-.#.+.b.c.@.@.@.c.@.&.#.*.c.@.*.o.x.&.x.b.$.x.x.b.$.$.x.b.b.x.x.x.x.x.x.x.x.O.",
"k.x.x.x.x.x.b.b.$.b.b.x.x.x.x.x.x.x.x.x.c.x.c.b.x.<.@.b.x.x.x.&.@.@.o.x.@.b.b.b.x.b.$.$.b.b.x.b.x.x.x.<.,.x.%.x.x.x.x.x.x.x.x.x.",
"k.x.x.x.x.x.x.x.x.x.b.x.x.x.x.x.x.x.x.x.x.x.b.b.b.$.b.x.x.x.x.x.c.x.x.x.c.b.b.b.x.x.x.b.x.x.$.x.x.x.$.=.$.c.b.x.x.x.x.x.x.x.x.x.",
"k.k.x.x.x.x.x.x.x.b.x.x.x.x.x.x.x.x.x.x.x.x.b.b.$.b.x.x.x.x.x.x.x.x.x.x.x.x.b.x.x.x.x.x.$.b.x.b.b.x.b.b.<.b.b.x.x.x.x.x.x.x.x.l.",
"x.x.x.x.x.x.x.x.x.x.x.x.x.x.x.x.x.x.x.x.b.b.x.$.$.b.x.x.x.x.x.x.x.x.x.x.x.x.x.c.x.x.x.x.x.x.x.x.x.x.x.$.<.%.x.x.x.x.x.x.x.x.x.x.",
"m.x.x.x.x.x.x.x.x.x.x.x.x.x.x.x.x.x.x.x.$.b.$.b.b.b.x.x.x.x.x.x.x.x.x.x.x.x.x.x.x.x.x.x.x.x.x.x.x.x.x.x.c.x.x.x.x.x.x.x.x.x.x.x.",
"x.m.x.x.x.x.x.x.x.x.x.x.x.x.x.x.x.x.x.x.$.x.b.x.x.x.x.x.x.x.x.x.x.x.x.x.x.x.x.x.x.x.x.x.x.x.x.x.x.x.x.x.x.c.x.x.x.x.x.x.x.x.x.x.",
"x.m.x.x.x.x.x.x.x.x.x.x.x.x.x.x.x.x.x.b.b.b.x.b.b.x.x.x.x.x.x.x.x.x.x.x.x.x.x.x.x.x.x.x.x.x.x.x.x.x.x.x.x.x.x.x.x.x.x.x.x.x.x.x.",
"x.x.x.x.x.x.x.x.x.x.x.x.x.x.x.x.x.x.x.$.x.b.x.x.b.x.x.x.x.x.x.x.x.x.x.x.x.x.x.x.x.x.x.x.x.x.x.x.x.x.b.x.x.x.x.x.x.x.x.x.x.x.x.x.",
"x.x.x.x.x.x.x.x.x.x.x.x.x.x.x.x.x.x.x.x.x.$.x.x.x.x.x.x.x.x.x.x.x.x.x.x.x.x.x.x.x.x.x.x.x.x.b.$.x.b.x.x.x.x.x.x.x.x.x.x.x.x.x.x.",
"x.x.x.x.x.x.x.x.x.x.x.x.x.x.x.x.x.x.x.x.$.b.b.x.x.x.x.x.x.x.x.x.x.x.x.x.x.x.x.x.x.x.x.x.x.x.x.b.b.x.b.x.x.x.x.x.x.x.x.x.x.x.x.x.",
"x.x.x.x.x.x.x.x.x.x.x.x.x.x.x.x.x.x.x.b.x.x.x.x.x.x.x.x.x.x.x.x.x.$.x.x.x.x.x.x.x.x.x.x.x.x.x.x.x.x.x.b.x.x.x.x.x.x.x.x.x.x.x.x.",
"x.x.x.x.x.x.x.x.x.x.x.x.x.x.x.x.x.x.x.x.x.x.x.x.x.x.x.x.x.x.x.x.x.x.x.x.x.x.x.x.x.x.x.x.x.b.x.x.x.x.b.x.x.x.x.x.x.x.x.x.x.x.x.x.",
"x.x.x.x.x.x.x.x.x.x.x.x.x.x.x.x.x.x.x.x.x.x.x.x.x.x.x.x.x.x.x.x.b.x.b.x.b.x.x.x.x.x.x.x.x.x.x.$.x.x.x.x.x.x.x.x.x.x.x.x.x.x.x.x.",
"x.x.x.x.x.x.x.x.x.x.x.x.x.x.x.x.x.x.x.x.x.x.x.x.x.x.x.x.x.x.x.x.x.b.x.x.x.x.b.x.x.x.x.x.x.x.x.x.x.x.x.x.x.x.x.x.x.x.x.x.x.x.x.x.",
"x.x.x.x.x.x.x.x.x.x.x.x.x.x.x.x.x.x.x.x.x.x.x.x.x.x.x.x.x.x.x.x.x.x.x.b.x.x.x.x.x.x.x.x.x.x.x.x.x.x.x.x.x.x.x.x.x.x.x.x.x.x.x.x.",
"x.x.x.x.x.x.x.x.x.x.x.x.x.x.x.x.x.x.x.x.x.x.x.x.x.x.x.x.x.x.x.x.x.x.x.b.x.x.x.x.x.x.x.x.x.x.x.x.x.x.x.x.x.x.x.x.x.x.x.x.x.x.x.x.",
"x.x.x.x.x.x.x.x.x.x.x.x.x.x.x.x.x.x.x.x.x.x.x.x.x.x.x.x.x.x.x.x.x.x.x.x.x.x.x.x.x.x.x.x.x.x.x.x.x.x.x.x.x.x.x.x.x.x.x.x.x.x.x.x.",
"x.x.x.x.x.x.x.x.x.x.x.x.x.x.x.x.x.x.x.x.x.x.x.x.x.x.x.x.x.x.x.x.x.x.x.x.x.x.x.x.x.x.x.x.x.x.x.x.x.x.x.x.x.x.x.x.x.x.m.x.x.x.x.x.",
"x.x.x.x.x.x.x.x.x.x.x.x.x.x.x.x.x.x.x.x.x.x.x.x.x.x.x.x.x.x.x.x.x.x.x.x.x.x.x.x.x.x.x.x.x.x.x.x.x.x.x.x.x.x.x.x.x.m.x.x.x.x.x.x.",
"x.x.x.x.x.x.x.x.x.x.x.x.x.x.x.x.x.x.x.x.x.x.x.x.x.x.x.x.x.x.x.x.x.x.x.x.x.x.x.x.x.x.x.x.x.x.x.x.x.x.x.x.x.x.x.x.x.m.x.x.x.x.x.x.",
"x.x.x.x.x.x.x.x.x.x.x.x.x.x.x.x.x.x.x.x.x.x.x.x.x.x.x.x.x.x.x.x.x.x.x.x.x.x.x.x.x.x.x.x.x.x.x.x.x.x.x.x.x.x.x.x.x.x.x.x.x.x.x.x.",
"x.x.x.x.x.x.x.x.x.x.x.x.x.x.x.x.n.v.x.x.x.x.x.x.x.x.x.x.x.x.x.x.x.x.x.x.x.x.x.x.x.x.x.x.x.x.x.x.x.x.x.x.x.x.x.x.x.x.x.x.x.x.x.x.",
"x.x.x.x.x.x.x.x.x.x.x.x.x.x.x.x.v.v.v.O.x.x.x.x.x.x.x.x.x.x.x.x.x.x.x.x.x.x.x.x.x.x.x.x.x.x.x.x.x.x.x.x.x.x.x.x.x.x.x.x.x.x.x.x."
};
