/* XPM */
static char *c8b0dffff9004e95e6d8df2b689e7b5aiKtHIJE3jMhgc4Of[] = {
/* columns rows colors chars-per-pixel */
"64 64 8 1 ",
"  c #077307",
". c #9C5A3C",
"X c #BD6C49",
"o c #0A870A",
"O c #088F08",
"+ c #0F9C0F",
"@ c #24B524",
"# c #A8E61D",
/* pixels */
"OOO#OOOOOOOOOOO++++ OOOOOOOOOOOOOOOOOOOOOOOOOOOOOOOOOOOOOOOOOOOO",
"OO#OOOOOOOOOOOO o+o OOOOOOOOOOOOOOOOOOOOOOOOOOOOOOOOOOOOOOOOOOOO",
"OO#OOOOOOOOOOOOO   OOOOOOOOOOOOOOOOOOOOOOOOOOOOOOOOOOOOOOOOOOOOO",
"OOOOOOOOOOOOOOOOO.OOOOOOOOOOOOOOOOOOOOOOOOOOOOOOOOOOOOOOOOOOOOOO",
"OOOOOOOOOOOOOOOOO.OOOOOOOOOOOO@+o OOOOOOOOOOOOOOOOOOOOOOOOOOOOOO",
"OOOOOOOOOOO@+ OOX..OOOOOOOOOO++++o OOOOOOOOOOOOOOOOOOOOOOOOOOOOO",
"OOOOOOOOOOO@+oOOOOOOOOOOOOOO@@+++o OOOOOOOO#OOOOOOOOOOOOOOOOOOOO",
"OOOOOOOOOOO++oOOOOOOOOOOOOOO+++++o OOOOOOOOO#OOOOOOOOOOOOOOOOOOO",
"OOOOOOOOOOO o OOOOOOOOOOOOOO  o+oo OOOOOOOOO#OOOOOOOOOOOOOOOOOOO",
"OOOOOOOOOOO   OOOOOOOOOOOOOOO     OOOOOOOOOOOOOOOOOOOOOOOOOOOOOO",
"OOOOOOOOOOOO.OOOOOOOOOOOOOOOOOO.OOOOOOOOOOOOOOOOOOOOOOOOOO#OOOOO",
"OOOOOOOOOOOO.OOOOOOOOOOOOOOOOOO.OOOOOOOOOOOOOOOOOOOOOOOOO#OOOOOO",
"OOOOOOOOOOOO.OOOOO#OOOOOOOOOOOO.OOOOOOOOOOOOOOOOOOOOOOOOO#OOOOOO",
"OOOOOOOOOOOOOOOOOOO#OOOOOOOOOOO.OOOOOOOOOOOOOOOOOOOOOOOOOOOOOOOO",
"OOOOOOOOOOOOOOOOOOO#OOOOOOOOOOOOOOOOOOOOOOOOOOOO@+ OOOOOOOOOOOOO",
"OOOOOOOOOOOOOOOOOOOOOOOOOOOOOOOOOOOOOOOOOOOOOOOO@+ OOOOOOOOOOOOO",
"OOOOOOOOOOOOOOOOOOOOOOOOOOOOOOOOOOOOO@+oOOOOOOOO++oOOOOOOOOOOOOO",
"OOOOOOOOOOOOOOOOOOOOOOOOOOOOOOOOOOOOO+++ OOOOOO@++oOOOOOOOOOOOOO",
"OOOOOOOOOOOOOO@@+o OOOOOOOOOOOOOOOOO@+++ OOOOOO+++oOOOOOOOOOOOOO",
"OOOOOOOOOOOOO+++++o OOOOOOOOOOOOOOOO++++ OOOOOO o+oOOOOOOOOOOOOO",
"OOOOOOOOOOOO++++++o OOOOOOOOOOOOOOOO o+o OOOOOO  o OOOOOOOOOOOOO",
"OOOOOOOOOOOO   ooo  OOOOOOOOOOOOOOOOO   OOOOOOOO   OOOOOOOOOOOOO",
"OOOOOOOOOOOOOOO..OOOOOOOOOOOOOOOOOOOOO.OOOOOOOOOO.OOOOOOOOOOOOOO",
"OOOOOOOOOOOOOOOX.OOOOOOOOOOOOOOOOOOOOO.OOOOOOOOOO.OOOOOOOOOOOOOO",
"OOOOOOOO#OOOOOX...OO@++o OOOOOOOOOOOOO.OOOOOOOOOO.OOOOOOOOOOOOOO",
"OOOOOOOOO#OOOOOOOOO+++++oOOOOOOOOOOOOO.OOOOOOOOOO.OOOOOOOOOOOOOO",
"OOOOOOOOO#OOOOOOOOO+++++oOOOOOOOOOOOOOOOOOOOOOOOX.OOOOOOOO@+ OOO",
"OOOOOOOOOOOOOOOOOOO o++ooOOOOOOOOOOOOOOOOOOOOOOOOOOOOOOOOO@+oOOO",
"OOOOOOOOOOOO@+oOOOO      OOOOOOOOOOOOOOOOOOOOOOOOOOOOOOOOO++oOOO",
"OOOOOOOOOOOO@+oOOOOOO..OOOOOOOOOOO#OOOOOOOOOOOOOOOOOOOOOOO o OOO",
"OOOOOOOOOOO@+++ OOOOOX.OOOOO@+oOOOO#OOOOOOOOOOOOOOOOOOOOOO   OOO",
"OOOOOOOOOOO++++ OOOOOX.OOOOO@+oOOOO#OOOOOOOOOOOOOOOOOOOOOOO.OOOO",
"OOOOOOOOOOO o+o OOOOX...OOO@+++ OOOOOOOOOOOOOOOOOOOOO#OOOOO.OOOO",
"OOOOOOOOOOOO   OOOOOOOOOOOO++++ OOOOOOOOOOOOOOOOOOOO#OOOOOO.OOOO",
"OOOOOOOOOOOOO.OOOOOOOOOOOOO o+o OOOOOOOOOOOOOOOOOOOO#OOOOOOOOOOO",
"+oOOOOOOOOOOO.OOOOOOOOOOOOOO   OOOOOOOOOOO@+ OOOOOOOOOOOOOOOOOO@",
"++ OOOOOOOOOO.OOOOOOOOOOOOOOO.OOOOOOOOOOO@++oOOOOOOOOOOOOOOOOOO+",
"++ OOOOOOOOOX..OOOOOOOOOOOOOO.OOOOOOOOOOO o+oOOOOOOOOOOOOOOOOO++",
"+o OOOOOOOOOOOOOOOOOOOOOOOOOO.OOOOOOOOOOOO   OOOOOOOOOOOOOOOOO o",
"  OOOOOOOOOOOOOOOOOOOOOOOOOOX..OOOOOOOOOOOO.OOOOOOOOOOOOOOOOOOO ",
"  OOOOOOOOOOOOOOOOOOOOOOOOOOOOOOOOOOOOOOOOO.OOOOOOOOOOOOOOOOOOO ",
".OOOOOOOOOOOOOOOOOOOOOOOOOOOOOOOOOOOO+ OOOX.OOOOOOOOO@+ OOOOOOOO",
".OOOOOOOOOOOOOOOOOOOOOOOOOOOOOOOOOOO++oOOOOOOOOOOOOOO++oOOOOOOOO",
"..OOOOOOOOOOOOOOOOOOOOOOOOO@++ OOOOO++oOOOOOOOOOOOOO@++oOOOOOOOX",
"OOOOOOOOOOOOOOOOOOOOOOOOOOO+++o OOOO +oOOOOOOOOOOOOO o+oOOOOOOOO",
"#OOOOOOOOOOOOOOOOOOOOOOOOO++++o OOOO   OOOOOOOOOOOOO  o OOOOOOOO",
"O#OOOOOOOOOOOOOOOOOOOOOOOO  ++o OOOOO.OOOOOOOOOOOOOOO   OOOOOOOO",
"O#OOOOOOOOOOOOOOOOOOOOOOOOO    OOOOOO.OOOOOOOOOOOOOOOO.OOOOOOOOO",
"OOOOOOOOOOOOOOOOOOOOOOOOOOOO..OOOOOOO.OOOOOOOOOOOOOOOO.OOOOOOOOO",
"OOOOOOOOOOOOOOOOOOOOOOOOOOOOX.OOOOOOOOOOOOOOOOOOOOOOOO.OOOOOOOOO",
"OOOOOOOOOOOOOOOOOOOOOOOOOOOOX.OOOOOOOOOOOOO#OOOOOOOOOOOOOOOOOOOO",
"OOOOOOOOOOOOOOOOOOOOOOOOOOOO..OOOOOOOOOOOO#OOOOOOOOOOOOOOOOOOOOO",
"OOOOOOOOOOOOOOOOOOOOOOOOOOOOOOOOOOOOOOOOOO#OOOOO+ OOOOOOOOOOOOOO",
"OOOOOOOOOOOOOOOOOOOOOOOOOOOOOOOOOOO@@+ OOOOOOOO++oOOOOOOOOOOOOOO",
"OOOOOOOOOOOOOOOOOOOOOOOOOOOOOOOOOOO+++o OOOOOOO++oOOOOOOOOOOOOOO",
"OOOOOOOOOOOOOOOOOOOOOOOOOOOOOOOOOO@+++o OOOOOOO +oOOOOOOOOOOOOOO",
"OOOOOOOOOOOOOOOOOOO#OOOOOO@+o OOOO o++o OOOOOOO   OOOOOOOOOOOOOO",
"OOOOOOOOOOOOOOOOOOOO#OOOO++++o OOO  oo  OOOOOOOO.OOOOOOOOOOOOOOO",
"OOOOOOOOOOOOOOOOOOOO#OOO+++++o OOOO    OOOOOOOOO.OOOOOOOOO#OOOOO",
"OOOOOOOOOOOOOOOOOOOOOOOO   oo  OOOOOX.OOOOOOOOOO.OOOOOOOO#OOOOOO",
"OOOOOOOOOOOOOOOOOOOOOOOOOOO.OOOOOOOOX.OOOOOOOOOOOOOOOOOOO#OOOOOO",
"OOOOOOOOOOOOOOOOOOOOOOOOOOO.OOOOOOOX..OOOOOOOOOOOOOOOOOOOOOOOOOO",
"OOOOOOOOOOOOOOOO@+oOOOOOOOX..OOOOOOOOOOOOOOOOOOOOOOOOOOOOOOOOOOO",
"OOOOOOOOOOOOOOOO+++ OOOOOOOOOOOOOOOOOOOOOOOOOOOOOOOOOOOOOOOOOOOO"
};
