/* XPM */
static char *_0be57ee49f04041d0429d8684518e42Jki12G9aqkMdC5WX[] = {
/* columns rows colors chars-per-pixel */
"64 64 20 1 ",
"  c #077307",
". c #464646",
"X c #9C5A3C",
"o c #D66920",
"O c #B03D49",
"+ c #995D45",
"@ c #BA624E",
"# c #BD6C49",
"$ c #C24450",
"% c #0A870A",
"& c #088F08",
"* c #0F9C0F",
"= c #24B524",
"- c #A8E61D",
"; c #FFC20E",
": c #00B7EF",
"> c gray74",
", c #F2BA8E",
"< c #C2C0C2",
"1 c gray87",
/* pixels */
"&&&-&&&&&&&&&&&**** &&&&&&&&&&&&&&&&&&&&&&&&&&&&&&&&&&&&&&&&&&&&",
"&&-&&&&&&&&&&&& %*% &&&&&&&&&&&&&&&&&&&&&&&&&&&&&&&&&&&&&&&&&&&&",
"&&-&&&&&&&&&&&&&   &&&&&&&&&&&&&&&&&&&&&&&&&&&&&&&&&&&&&&&&&&&&&",
"&&&&&&&&&&&&&&&&&X&&&&&&&&&&&&&&&&&&&&&&&&&&&&&&&&&&&&&&&&&&&&&&",
"&&&&&&&&&&&&&&&&&X&&&&&&&&&&&&=*% &&&&&&&&&&&&&&&&&&&&&&&&&&&&&&",
"&&&&&&&&&&&=* &&#XX&&&&&&&&&&****% &&&&&&&&&&&&&&&&&&&&&&&&&&&&&",
"&&&&&&&&&&&=*%&&&&&&&&&&&&&&==***% &&&&&&&&-&&&&&&&&&&&&&&&&&&&&",
"&&&&&&&&&&&**%&&&&&&&&&&&&&&*****% &&&&&&&&&-&&&&&&&&&&&&&&&&&&&",
"&&&&&&&&&&& % &&&&&&&&&&&&&&  %*%% &&&&&&&&&-&&&&&&&&&&&&&&&&&&&",
"&&&&&&&&&&&   &&&&&&&&&&&&&&&     &&&&&&&&&&&&&&&&&&&&&&&&&&&&&&",
"&&&&&&&&&&&&X&&&&&&&&&&&&&&&&&&X&&&&&&&&&&&&&&&&&&&&&&&&&&-&&&&&",
"&&&&&&&&&&&&X&&&&&&&&&&&&&&&&&&X&&&&&&&&&&&&&&&&&&&&&&&&&-&&&&&&",
"&&&&&&&&&&&&X&&&&&-&&&&&&&&&&&&X&&&&&&&&&&&&&&&&&&&&&&&&&-&&&&&&",
"&&&&&&&&&&&&&&&&&&&-&&&&&&&&&&&X&......&&&&&&&&&&&&&&&&&&&&&&&&&",
"&&&&&&&&&&&&&&&&&&&-&&&&&&&&&&&&&.++++.&&&&&&&&&&&&&&&&&&&&&&&&&",
"&&&&&&&&&&&&&&&&&&&&&&&&&&&&&&&&&&....&&&&&&&&&&&&&&&&&&&&&&&&&&",
"&&&&&&&&&&&&&&&&&&&&&&&&&&&&&&&&&&.,o.&&&&&&&&&&&&&&&&&&&&&&&&&&",
"&&&&&&&&&&&&&&&&&&&&&&&&&&&&&&&&&&.o,.&&&&&&&&&&&&&&&&&&&&&&&&&&",
"&&&&&&&&&&&&&&&&&&&&&&&&.........&.,,.&&&&&&&&&&&&&&&&&&&&&&&&&&",
"&&&&&&&&&&&&&&&&&&&&&&&.$$$$$$$OO..oo.&&&&&&&&&&&&&&&&&&&&&&&&&&",
"&&&&&&&&&&&&&&&&&&&&&&.$$$$OOOOO$$.,,.&&&&&&&&&&&&&&&&&&&&&&&&&&",
"&&&&&&&&&&&&&&&&&&&&&.$$.OO$$$$$OO.,,.&&&&&&&&&&&&&&&&&&&&&&&&&&",
"&&&&&&&&&&&&&&&&&&&&.$$.<.$$$OOOO$.o,.&&&&&&&&&&&&&&&&&&&&&&&&&&",
"&&&&&&&&&&&&&&&&&&&.$$.<<<.OOO$$$$.,,.&&&&&&&&&&&&&&&&&&&&&&&&&&",
"&&&&&&&&-&&&&&&&&&.$$.<<11<.$$$OOO.,o..&&&&&&&&&&&&&&&&&&&&&&&&&",
"&&&&&&&&&-&&&&&&&.$$.<<1111<.OOO$$.,,.O.&&&&&&&&&&&&&&&&&&&&&&&&",
"&&&&&&&&&-&&&&&&.$$.<<1..111<.$$$O.,,.$$.&&&&&&&&&&&&&&&&&=* &&&",
"&&&&&&&&&&&&&&&.$$.<<1.::.111<.OOO$...OOO.&&&&&&&&&&&&&&&&=*%&&&",
"&&&&&&&&&&&&&&.$$.<<11.::.1111<.$$$OOOO$$$.&&&&&&&&&&&&&&&**%&&&",
"&&&&&&&&&&&&&.$$.<<111>..>11111<...........&&&&&&&&&&&&&&& % &&&",
"&&&&&&&&&&&&&&...<11111>>1111111>>>>>>>>>.&&&&&&&&&&&&&&&&   &&&",
"&&&&&&&&&&&&&&&&.111111111111111>>>>>>>>>.&&&&&&&&&&&&&&&&&X&&&&",
"&&&&&&&&&&&&&&&&.111111111111111>>>>>>>>>.&&&&&&&&&&&-&&&&&X&&&&",
"&&&&&&&&&&&&&&&&.111111111111111>>>>>>>>>.&&&&&&&&&&-&&&&&&X&&&&",
"&&&&&&&&&&&&&&&&.111111111111111>>>>>>>>>.&&&&&&&&&&-&&&&&&&&&&&",
"*%&&&&&&&&&&&&&&.111111111111111>>>>>>>>>.&&&&&&&&&&&&&&&&&&&&&=",
"** &&&&&&&&&&&&&.111111111111111>>>>>>>>>.&&&&&&&&&&&&&&&&&&&&&*",
"** &&&&&&&&&&&&&.111111111111111>>>>>>>>>.&&&&&&&&&&&&&&&&&&&&**",
"*% &&&&&&&&&&&&&.1111..111111111>>>>>>>>>.&&&&&&&&&&&&&&&&&&&& %",
"  &&&&&&&&&&&&&&.111.XX.11111111>>>>>>>>>.&&&&&&&&&&&&&&&&&&&&& ",
"  &&&&&&&&&&&&&&.11.@@@@.1111111>>>>>>>>>.&&&&&&&&&&&&&&&&&&&&& ",
"X&&&&&&&&&&&&&&&.11.XXXX.1111111>>>>>>>>>.&&&&&&&&&&&=* &&&&&&&&",
"X&&&&&&&&&&&&&&&.11.XXX;.1111111>>>>>>>>>.&&&&&&&&&&&**%&&&&&&&&",
"XX&&&&&&&&&&&&&&.11.XXXX.1111111>>>>>>>>>.&&&&&&&&&&=**%&&&&&&&#",
"&&&&&&&&&&&&&&&&.11.@@@@.1111111>>>>>>>>>.&&&&&&&&&& %*%&&&&&&&&",
"-&&&&&&&&&&&&&&&..........................&&&&&&&&&&  % &&&&&&&&",
"&-&&&&&&&&&&&&&&&&&&&&&&&&&&&&&&&&&&&&&&&&&&&&&&&&&&&   &&&&&&&&",
"&-&&&&&&&&&&&&&&&&&&&&&&&&&&&&&&&&&&&&&&&&&&&&&&&&&&&&X&&&&&&&&&",
"&&&&&&&&&&&&&&&&&&&&&&&&&&&&&&&&&&&&&&&&&&&&&&&&&&&&&&X&&&&&&&&&",
"&&&&&&&&&&&&&&&&&&&&&&&&&&&&&&&&&&&&&&&&&&&&&&&&&&&&&&X&&&&&&&&&",
"&&&&&&&&&&&&&&&&&&&&&&&&&&&&&&&&&&&&&&&&&&&-&&&&&&&&&&&&&&&&&&&&",
"&&&&&&&&&&&&&&&&&&&&&&&&&&&&&&&&&&&&&&&&&&-&&&&&&&&&&&&&&&&&&&&&",
"&&&&&&&&&&&&&&&&&&&&&&&&&&&&&&&&&&&&&&&&&&-&&&&&* &&&&&&&&&&&&&&",
"&&&&&&&&&&&&&&&&&&&&&&&&&&&&&&&&&&&==* &&&&&&&&**%&&&&&&&&&&&&&&",
"&&&&&&&&&&&&&&&&&&&&&&&&&&&&&&&&&&&***% &&&&&&&**%&&&&&&&&&&&&&&",
"&&&&&&&&&&&&&&&&&&&&&&&&&&&&&&&&&&=***% &&&&&&& *%&&&&&&&&&&&&&&",
"&&&&&&&&&&&&&&&&&&&-&&&&&&=*% &&&& %**% &&&&&&&   &&&&&&&&&&&&&&",
"&&&&&&&&&&&&&&&&&&&&-&&&&****% &&&  %%  &&&&&&&&X&&&&&&&&&&&&&&&",
"&&&&&&&&&&&&&&&&&&&&-&&&*****% &&&&    &&&&&&&&&X&&&&&&&&&-&&&&&",
"&&&&&&&&&&&&&&&&&&&&&&&&   %%  &&&&&#X&&&&&&&&&&X&&&&&&&&-&&&&&&",
"&&&&&&&&&&&&&&&&&&&&&&&&&&&X&&&&&&&&#X&&&&&&&&&&&&&&&&&&&-&&&&&&",
"&&&&&&&&&&&&&&&&&&&&&&&&&&&X&&&&&&&#XX&&&&&&&&&&&&&&&&&&&&&&&&&&",
"&&&&&&&&&&&&&&&&=*%&&&&&&&#XX&&&&&&&&&&&&&&&&&&&&&&&&&&&&&&&&&&&",
"&&&&&&&&&&&&&&&&*** &&&&&&&&&&&&&&&&&&&&&&&&&&&&&&&&&&&&&&&&&&&&"
};
