/* XPM */
static char *result[] = {
/* columns rows colors chars-per-pixel */
"64 64 6 1 ",
"  c black",
". c #464646",
"X c #ED1C24",
"o c #FF7E00",
"O c white",
"+ c None",
/* pixels */
"++++++++++++++++++++++++++++++++++++++++++++++++++++++++++++++++",
"++++++++++++++++++++++++++++++++++++++++++++++++++++++++++++++++",
"++++++++++++++++++++++++++++++++++++++++++++++++++++++++++++++++",
"++++++++++++++++++++++++++++++++++++++++++++++++++++++++++++++++",
"++++++++++++++++++++++++++++++++++++++++++++++++++++++++++++++++",
"++++++++++++++++++++++++++++++++++++++++++++++++++++++++++++++++",
"++++++++++++++++++++++++++++++++++++++++++++++++++++++++++++++++",
"++++++++++++++++++++++++++++++++++++++++++++++++++++++++++++++++",
"++++++++++++++++++++++++++++++++++++++++++++++++++++++++++++++++",
"+++++++++++++++++++++++++++++.......++++++++++++++++++++++++++++",
"+++++++++++++++++++++++++++..OXOOOOO..++++++++++++++++++++++++++",
"++++++++++++++++++++++++++.OOOXOOOOOOX.+++++++++++++++++++++++++",
"+++++++++++++++++++++++++.OOOOXXOOOOOXO.++++++++++++++++++++++++",
"++++++++++++++++++++++++.XOOOOOXXOOOOOOO.+++++++++++++++++++++++",
"+++++++++++++++++++++++.OOXXXOOOOOOOOOOOO.++++++++++++++++++++++",
"+++++++++++++++++++++++.OOOOXOOOOOOOOOOOX.++++++++++++++++++++++",
"++++++++++++++++++++++.OOOOOXOOOOOOOOOOOOO.+++++++++++++++++++++",
"++++++++++++++++++++++.OOOOOOOOOO   OOOOOO.+++++++++++++++++++++",
"++++++++++++++++++++++.XXXXOOOOO ooo OOOOO.+++++++++++++++++++++",
"++++++++++++++++++++++.OOOXOOOO oo oo OOOX.+++++++++++++++++++++",
"++++++++++++++++++++++.OOOOOOOO o   o OOOO.+++++++++++++++++++++",
"++++++++++++++++++++++.OOOOOOOO oo oo OOOO.+++++++++++++++++++++",
"++++++++++++++++++++++.OOXXXXOOO ooo OOOOO.+++++++++++++++++++++",
"+++++++++++++++++++++++.OXOOOOOOO   OOOOO.++++++++++++++++++++++",
"+++++++++++++++++++++++.XOOOOOOOOOOOOOOOO.++++++++++++++++++++++",
"++++++++++++++++++++++++.OOOOOXOOOOOOOOX.+++++++++++++++++++++++",
"+++++++++++++++++++++++++.OOOXXOOOOOOOO.++++++++++++++++++++++++",
"++++++++++++++++++++++++++.OXXOOOOXOOO.+++++++++++++++++++++++++",
"+++++++++++++++++++++++++++..OOOOOXO..++++++++++++++++++++++++++",
"+++++++++++++++++++++++++++++.......++++++++++++++++++++++++++++",
"+++++++++++++++++++++++++++++XXXXXXX++++++++++++++++++++++++++++",
"++++++++++++++++++++++++++++++XXXXX+++++++++++++++++++++++++++++",
"+++++++++++++++++++++++++++++++XXXX+++++++++++++++++++++++++++++",
"++++++++++++++++++++++++++++++++XXX+++++++++++++++++++++++++++++",
"++++++++++++++++++++++++++++++++XX++++++++++++++++++++++++++++++",
"++++++++++++++++++++++++++++++++XX++++++++++++++++++++++++++++++",
"+++++++++++++++++++++++++++++++++X++++++++++++++++++++++++++++++",
"+++++++++++++++++++++++++++++++++X++++++++++++++++++++++++++++++",
"+++++++++++++++++++++++++++++++++X++++++++++++++++++++++++++++++",
"+++++++++++++++++++++++++++++++++X++++++++++++++++++++++++++++++",
"+++++++++++++++++++++++++++++++++X++++++++++++++++++++++++++++++",
"+++++++++++++++++++++++++++++++++X++++++++++++++++++++++++++++++",
"++++++++++++++++++++++++++++++++XX++++++++++++++++++++++++++++++",
"++++++++++++++++++++++++++++++++X+++++++++++++++++++++++++++++++",
"++++++++++++++++++++++++++++++++X+++++++++++++++++++++++++++++++",
"++++++++++++++++++++++++++++++++X+++++++++++++++++++++++++++++++",
"++++++++++++++++++++++++++++++++X+++++++++++++++++++++++++++++++",
"++++++++++++++++++++++++++++++++X+++++++++++++++++++++++++++++++",
"++++++++++++++++++++++++++++++++X+++++++++++++++++++++++++++++++",
"+++++++++++++++++++++++++++++++XX+++++++++++++++++++++++++++++++",
"+++++++++++++++++++++++++++++++XX+++++++++++++++++++++++++++++++",
"++++++++++++++++++++++++++++++++++++++++++++++++++++++++++++++++",
"++++++++++++++++++++++++++++++++++++++++++++++++++++++++++++++++",
"++++++++++++++++++++++++++++++++++++++++++++++++++++++++++++++++",
"++++++++++++++++++++++++++++++++++++++++++++++++++++++++++++++++",
"++++++++++++++++++++++++++++++++++++++++++++++++++++++++++++++++",
"++++++++++++++++++++++++++++++++++++++++++++++++++++++++++++++++",
"++++++++++++++++++++++++++++++++++++++++++++++++++++++++++++++++",
"++++++++++++++++++++++++++++++++++++++++++++++++++++++++++++++++",
"++++++++++++++++++++++++++++++++++++++++++++++++++++++++++++++++",
"++++++++++++++++++++++++++++++++++++++++++++++++++++++++++++++++",
"++++++++++++++++++++++++++++++++++++++++++++++++++++++++++++++++",
"++++++++++++++++++++++++++++++++++++++++++++++++++++++++++++++++",
"++++++++++++++++++++++++++++++++++++++++++++++++++++++++++++++++"
};
