/* XPM */
static char *_46e0d4c39714d39adfced06ca1ebc98aAIpd6nji7XKezxI[] = {
/* columns rows colors chars-per-pixel */
"64 64 16 1 ",
"  c #7D3324",
". c #077307",
"X c #087308",
"o c #915034",
"O c #9C5A3C",
"+ c #BD6C49",
"@ c #078907",
"# c #078B07",
"$ c #0A870A",
"% c #088F08",
"& c #0F9C0F",
"* c #24B524",
"= c #A8E61D",
"- c #CC9B78",
"; c #E6AF87",
": c #F2BA8E",
/* pixels */
"%%%=%%%%%%%%%%%&&&&.%%%%%%%%%%%%%%%%%%%@%%%%%%%%%%%%%%%%%%%%%%%%",
"%%=%%%%%%%%%%%%.$&$.%%%%%%%%%%%%%%%%%%%%%%%%%%%%%%%%%%%%%%%%%%%%",
"%%=%%%%%%%%%%%%%...%%%%%%%%%%%%%%%%%%%%%%%%%%%%%%%%%%%%%%%%%%%%%",
"%%%%%%%%%%%%%%%%%O%%%%%%%%%%%%%%%%%%%%%%%%%%%%%%%%%%%%%%%%%%%%%%",
"%%%%%%%%%%%%%%%%%O%%%%%%%%%%%%%%%%%%%%%%%%%%%%%%%%%%%%%%%%%%%%%%",
"%%%%%%%%%%%%%%%%+OO%%%%%%%%%%%%%%%%%%%%%%%%%%%%%%%%%%%%%%%%%%%%%",
"%%%%%%%%%%%%%%%@%%%%%%%%%%%%%%%%%%%%%%%%%%%%%%%%%%%%%%%%%%%%%%%%",
"%%%%%%%%%%%%%%%%%%%%%%%%%%%%%%%%%%%%%%%%%%%%%:%%%%%%%%%%%%%%%%%%",
"%%%%%%%%%%%%%%%%%%%%%%%%%%%%%%%%%%%%%%%%%%%%::%%%%%%%%%%%%%%%%%%",
"%%%%%%%%%%%%%%%%%%%%%%%%%%%%%%%%%%%%%%%%%%%%::%%%%%%%%%%%%%%%%%%",
"%%%%%%%%%%%%%%%%%%%%%%%%%%%%%%%%%%%%%%%%%%%%::%%%%%%%%%%%%%%%%%%",
"%%%%%%%%%%%%%%%%%%%%%%%%%%%%%%%%%%X%%%%%%%%:::%%%%%%%%%%%%%%%%%%",
"%%%%%%%%%%%%%%%%%%%%%%%%%%%%%%%%%%X%%%%%%%::::%%%%%%%%%%%%%%%%%%",
"%%%%%%%%%%%%%%%%%%%%%%%%%%%%%%%%%%XX%%%%%%::::%%%%%%%%%%%%%%%%%%",
"%%%%%%%%%%%%%%%%%%%%%%%%%%%%%%%%%%XXX%%%%%;;:;%%%%%%%%%%%%%%%%%%",
"%%%%%%%%%%%%%%%%%%%%%%%%%%%%%%%%%%XXX%%%%%oo;%%%%%%%%%%%%%%%%%%%",
"%%%%%%%%%:%%%%%%%%%%%%%%%%%%%%%%%%%XX%%%%oooo%%%%%%%%%%%%%%%%%%%",
"%%%%%%%%%:%%%%%%%%%%%%%%%%%%%%%%%%%XX%%%%oooo%%%%%%%%%%%%%%%%%%%",
"%%%%%%%%%::%%%%%%%%%%%%%%%%%%%%%%%%XXXX% ooo%%%%%%%%%%%%%%%%%%%%",
"%%%%%%%%%:::%%%%%%%%%%%%%%%%%%%%%%%XXXX%oooo%%%%%%%%%%%%%%%%%%%%",
"%%%X%%%%%::::%%%%%%%%%%%%%%%%%%%%%%%XXX oooo%%%%%%%%%%%%%%%%%%%%",
"%%%XX%%%%::::%%%%%%%%%%%%%%%%%%%%%%%XXXooooo%%%%%%%%%%%%%%%%%%%%",
"%%%%XXX%%:::;%%%%%%%%%%%%%%%%%%%%%%%XXXooooo%%%%%%%%%%%%%%%%%%%%",
"%%%%XXXX%%ooo%%%%%%%%%%%%%%%%%%%%%%%%XXoooo%%%%%%%%%%%%%%%%%%%%%",
"%%%%XXXX%%ooo%%%%%%%%%%%%%%%%%%%%%%%%XXoooo%%%%%%%%%%%%%%%%%%%%%",
"%%%%%XXXX%ooo%%%%%%%%%%%%%%%%%%%%%%%%X-oooo%%%%%%%%%%%%%%%%%%%%%",
"%%%%%%XXX%ooo %%%%%%%%%%%%%%%%%%%%%%%--ooo;;%%%%%%%%%%%%%%%%%%%%",
"%%%%%%XXXXoooo%%%%%%%%%%%%%%%%%%%%%%%%%;;;%%%%%%%%%%%%%%%%%%%%%%",
"%%%%%%%XXXXooo%%%%%%%%%%%%%%%%%%%%%%%%%;;%%%%%%%%%%%%%%%%%%%%%%%",
"%%%%%%%%XXXooo %%%%%%%%%%%%%%%%%%%%%%%%%%%%%%%%%%%%%%%%%%%%%%%%%",
"%%%%%%%%XXXoooo%%%%%%%%%%%%%%%%%%%%%%%%%%%%%%%%%%%%%%%%%%%%%%%%%",
"%%%%%%%%%XXXooo%%%%%%%%%%%%%%%%%%%%%%%%%%%%%%%%%%%%%%%%%%%%%%%%%",
"%%%%%%%%%XXXooo %%%%%%%%%%%%%%%%%%%%%%%%%%%%%%%%%%%%%%%%%%%%%%%%",
"%%%%%%%%%XXXoooo%%%%%%%%%%%%%%%%%%%%%%%%%%%%%%%%%%%%%%%%%%%%%%%%",
"%%%%%%%%%%XXXooo%%%%%%%%%%%%%%%%%%%%%%%%%%%%%%%%%%%%%%%%%%%%%%%%",
"&$%%%%%%%%XXXooo%%%%%%%%%%%%%%%%%%%%%%%%%%%%%%%%%%%%%%%%%%%%%%%*",
"&&.%%%%%%%%XXooo;%%%%%%%%%%%%%%%%%%%%%%%%%%%%%%%%%%%%%%%%%%%%%%&",
"&&.%%%%%%%%X-ooo;;%%%%%%%%%%%%%%%%%%%%%%%%%%%%%%%%%%%%%%%%%%%%&&",
"&$.%%%%%%%%%Xooo;%%%%%%%%%X%%%%%%%%%%%%%%%%%%%%%%%%%%%%%%%%%%%.$",
"..%%%%%%%%%%%%;;%%%%%%%%%%XX%%%%%%%%%%%%%%%%%%%%%%%%%%%%%%%%%%%.",
"..%%%@%%%%%%%%%%%%%%%%%%%%XXX%%%%%%%%%%%%%%%%%%%%%%%%%%%%%%%%%%.",
"O%%%%%%%%%%%%%%%%%%%%%%%%%XXX%%%%%%%%%%%%%::%%%%%%%%%%%%%%%%%%%%",
"O%%%%%%%%%%%%%%%%%%%%%%%%%XXX%%%%%%%%%%%%:::%%%%%%%%%%%%%%%%%%%%",
"OO%%%%%%%%%%%%%%%%%%%%%%%%XXXX%%%%%%%%%%%:::%%%%%%%%%%%%%%%%%%%+",
"%%%%%%%%%%%%%%%%%%%%%%%%%%XXXX%%%%%%%%%;:::%%%%%%%%%%%%%%%%%%%%%",
"%%%%%%%%%%%%%%%%%%%%%%%%%%%XXX%%%%%%%%%o;::%%%%%%%%%%%%%%%%%%%%%",
"%%%%%%%%%%%%%%%%%%%%%%%%%%%XXX%%%%%%%%%oo:%%%%%%%%%%%%%%%%%%%%%%",
"%%%%%%%%%%%%%%%%%%%%%%%%%%%XXX%%%%%%% ooo%%%%%%%%%%%%%%%%%%%%%%%",
"%%%%%%%%%%%%%%%%%%%%%%%%%%%XXX%%%%%%%oooo%%%%%%%%%%%%%%%%%%%%%%%",
"%%%%%%%%%%%%%%%%%%%%%%%%%%%XXXX%%%%% oooo%%%%%%%%%%%%%%%%%%%%%%%",
"%%%%%%%%%%%%%%%%%%%%%%%%%%%XXXX%%%%%oooo%%%%%%%%%%%%%%%%%%%%%%%%",
"%%%%%%%%%%%%%%%%%%%%%%%%%%%%XXX%%%% ooo%%%%%%%%%%%%%%%%%%%%%%%%%",
"%%%%%%%%%%%%%%%%%%%%%%%%%%%%XXXX%%%oooo%%%%%%%%%%%%%%%%%%%%%%%%%",
"%%%%%%%%%%%%%%%%%%%%%%%%%%%%XXXX%% oooo%%%%%%%%%%%%%%%%%%%%%%%%%",
"%%%%%%%%%%%%%%%%%%%%%%%%%%%%XXXX%%oooo%%%%%%%%%%%%%%%%%%%%%%%%%%",
"%%%%%%%%%%%%%%%%%%%%%%%%%%%%%XXXX ooo%%%%%%%%%%%%%%%%%%%%%%%%%%%",
"%%%%%%%%%%%%%%%%%%%%%%%%%%%%%XXX ooo%%%%%%%%%%%%%%%%%%%%%%%%%%%%",
"%%%%%%%%%%%%%%%%%%%%%%%%%%%%%XX oooo%%%%%%%%%%%%%%%%%%%%%%%%%%%%",
"%%%%%%%%%%%%%%%%%%%%%%%%%%%%%%Xoooo%%%%%%%%%%%%%%%%%%%%%%%%%%%%%",
"%%%%%%%%%%%%%%%%%%%%%%%%%%%%%%;oooo;%%%%%%%%%%%%%%%%%%%%%%%%%%%%",
"%%%%%%%%%%%%%%%%%%%%%%%%%%%%%%%;;;%%%%%%%%%%%%%%%%%%%%%%%%%%%%%%",
"%%%%%%%%%%%%%%%%%%%%%%%%%%%%%%%%;;%%%%%%%%%%%%%%%%%%%%%%%%%%%%%%",
"%%%%%%%%%%%%%%%%*&$%%%%%%%%%%%%%%%%%%%%%%%%%%%%%%%%%%%%%%%%%%%%%",
"%%%%%%%%%%%%%%%%&&&.%%%%%%%%%%%%%%%%%%%%%%%%%%%%%%%%%%%%%%%%%%%%"
};
